<svg xmlns="http://www.w3.org/2000/svg" viewBox="0 0 244 309.4"><defs><style>.cls-1{fill:#39b54a;}</style></defs><title>Asset 3</title><g id="Layer_2" data-name="Layer 2"><g id="Layer_1-2" data-name="Layer 1"><path class="cls-1" d="M225.92,156.53c-4.58,21.06-25.42,38.36-45.13,44.55-4.11,1.29-8.7,2.19-12.62.4s-6.27-7.32-3.48-10.6c1.89-2.23,5.14-2.54,8-3A47.19,47.19,0,0,0,198,175.74c7.95-7.46,13-17.44,17.37-27.45,13.26-30.68,19.72-63,22.89-96.11,1.34-14,1.56-28-1.38-41.85-.23-1.09-.4-2.19-.67-3.66-2.71,2-5.17,3.77-7.57,5.59q-9.28,7-18.53,14.12c-.49.37-1,.73-1.43,1.14-5.1,4.57-10.24,9.11-15.29,13.74C182,51.72,173,64.05,165.22,77.35c-6.36,10.94-12.05,22.24-15.66,34.43a122,122,0,0,0-3.11,14.71c-.82,5-1.21,10.13-1.83,15.19-.94,7.69-.35,15.36.12,23,.24,3.87.2,7.76.26,11.65a9.86,9.86,0,0,0,1.61,5.81,6.13,6.13,0,0,1-9.84,7.25,18.46,18.46,0,0,1-4.41-10.59c-.42-3.85-.54-7.74-.83-11.61-.26-3.65-.74-7.29-.81-10.94a134.48,134.48,0,0,1,.28-13.91c.62-7.35,1.51-14.69,2.48-22,1.3-9.82,4.64-19,8.65-28.05a173.08,173.08,0,0,1,18.16-32.15c7.13-9.74,14.67-19.12,24.23-26.62,6-4.73,12.29-9.22,18.45-13.81a18.57,18.57,0,0,1,1.92-1.25L235.52.77a6.53,6.53,0,0,1,1-.54,2.34,2.34,0,0,1,2.74.48,2.05,2.05,0,0,1,.25,2.73c-.76,1,.23-2.54.38-1.47,1.66,11.78,4.28,29,3.91,40.88-.25,7.84.51,15.41,0,23.24-1.12,18.39-1.37,38.84-7.52,56.71-4.09,11.86-6.15,21.92-10.4,33.73"/><path class="cls-1" d="M9.34,60.08c.16,1.87.37,3.61.44,5.35.23,5.55.49,11.1.59,16.66.15,9.52-.1,19.06.33,28.56a168.32,168.32,0,0,0,8.2,45.5,98.88,98.88,0,0,0,13.82,26.91,109.48,109.48,0,0,0,14.59,16.62,88.9,88.9,0,0,0,6.88,5.64c2.91,2.2,5.91,4.29,8.9,6.4,4.45,3.13,9.09,5.85,14.52,6.93,1.36.28,1.94,1.08,1.77,2.21s-.93,1.66-2.4,1.49a22,22,0,0,1-4-.82,51.41,51.41,0,0,1-11.2-5.09c-4-2.47-8.07-4.89-12.08-7.39a45.18,45.18,0,0,1-4.11-2.88,112,112,0,0,1-22-23.42A103.86,103.86,0,0,1,8.47,149.94,197.87,197.87,0,0,1,3,120.57a219.21,219.21,0,0,1-1.38-26c0-7.69-.13-15.39-.42-23.07C1,66.71.38,61.94.06,57.15a16.74,16.74,0,0,1,.21-4.53C1,49.39,3.94,48,7,49.3A7.78,7.78,0,0,1,8.16,50c5.12,3.3,10.21,6.64,15.35,9.91,2.83,1.79,5.73,3.46,8.59,5.19,3.91,2.37,7.81,4.72,11.71,7.1,2.14,1.32,4.18,2.8,6.4,4a123.52,123.52,0,0,1,14.41,9.22,236.64,236.64,0,0,1,19.09,14.89,111.06,111.06,0,0,1,21.77,26c4.36,7.27,7.09,15.31,9.39,23.47a80.35,80.35,0,0,1,2.69,18,91.72,91.72,0,0,1-.89,20.27c-.55,3.22-.83,6.49-1.32,9.73a17.92,17.92,0,0,1-1,3.74,6,6,0,0,1-6.52,3.92c-2.77-.3-4.68-2.25-5.34-5.15-.5-2.24,0-4.4.31-6.57.58-3.68,1.42-7.33,1.91-11a78,78,0,0,0,.58-8.64c.27-13-2.86-25.2-7.87-37-2.16-5.1-5.35-9.57-8.63-14-7.44-10-16.56-18.25-26.35-25.85-1.92-1.49-3.81-3-5.77-4.48-3-2.2-6.07-4.33-9.11-6.48-3.36-2.38-6.72-4.74-10.07-7.12-1.92-1.36-3.73-2.94-5.76-4.1-7-4-13.32-9.11-19.95-13.71-.56-.39-1.12-.79-1.69-1.17C10,60.1,9.83,60.14,9.34,60.08Z"/><path class="cls-1" d="M122.35,291l1.31-2.58a210.56,210.56,0,0,0,8.88-19.53c1.56-4,3.49-7.94,5.26-11.9,4.29-9.56,7-19.61,9.63-29.72,4.37-17.12,7.66-34.46,11-51.81,3.56-18.63,7.85-37.07,15-54.75,2.67-6.63,4.93-13.43,7.43-20.13,2.36-6.28,6.27-11.64,10.25-17a13.93,13.93,0,0,1,2.68-2.45,4.13,4.13,0,0,1,1.87-.78,1.19,1.19,0,0,1,1.15,2,2.91,2.91,0,0,1-1.4,1.13c-1.68.52-2.56,1.84-3.48,3.15a76.64,76.64,0,0,0-10.1,18.86c-3.17,9.21-6.61,18.33-9.73,27.55-4.46,13.16-7.21,26.75-9.57,40.4-3.48,20.18-7.13,40.32-11.88,60.25a233.18,233.18,0,0,1-10.15,31,312.63,312.63,0,0,0-11.79,35,17.87,17.87,0,0,0-.45,2.93,5.38,5.38,0,0,1-3.52,4.89,7.26,7.26,0,0,0-1.54.91c-2.54,1.87-5.24.88-5.79-2.26-.39-2.25-.44-4.55-.8-6.8-.79-4.81-1.71-9.59-2.51-14.4-1.09-6.45-1.89-13-3.22-19.36-2.17-10.52-4.69-21-9.74-30.58C95.56,224.55,90.43,213.83,84,203.83,77.59,194,71.52,184,65.15,174.11c-3.39-5.24-7.27-10.15-10.68-15.38-2.86-4.39-5.4-9-8-13.57s-5.26-9.45-7.73-14.25a115.57,115.57,0,0,1-8.55-21.86,11.22,11.22,0,0,1-.35-2.25,1,1,0,0,1,1-1.24,2,2,0,0,1,1.26.72,3.43,3.43,0,0,1,.41,1.29,101.85,101.85,0,0,0,9.8,24c2.93,5.09,5.54,10.35,8.61,15.34,3.93,6.42,8.14,12.68,12.31,18.95,2.57,3.87,5.37,7.58,7.9,11.47,7.52,11.55,15.07,23.08,22.39,34.76,3.76,6,7.11,12.24,10.56,18.42,5.25,9.38,8.63,19.48,11.11,29.88,1.73,7.25,3.12,14.57,4.68,21.87.62,2.89,1.26,5.78,1.89,8.68Z"/></g></g></svg>